HIERARCHY
ROOT Hips
{
	OFFSET 0.000000 88.474243 0.000000
	CHANNELS 6 Xposition Yposition Zposition Zrotation Yrotation Xrotation 
	JOINT Hips_Spine
	{
		OFFSET 0.000000 0.000000 0.000000
		CHANNELS 3 Zrotation Yrotation Xrotation
		JOINT Spine
		{
			OFFSET 0.005100 8.711998 -0.691000
			CHANNELS 3 Zrotation Yrotation Xrotation
			JOINT Spine1
			{
				OFFSET -0.009200 8.660301 -1.275000
				CHANNELS 3 Zrotation Yrotation Xrotation
				JOINT Spine2
				{
					OFFSET 0.006300 9.852501 -1.857000
					CHANNELS 3 Zrotation Yrotation Xrotation
					JOINT Spine2_Neck
					{
						OFFSET 0.000000 0.000000 0.000000
						CHANNELS 3 Zrotation Yrotation Xrotation
						JOINT Neck
						{
							OFFSET 0.016300 11.420799 -0.263300
							CHANNELS 3 Zrotation Yrotation Xrotation
							End Site #name: Head
							{
								OFFSET -0.019200 9.262405 2.362500
							}
						}
					}
					JOINT Spine2_LeftShoulder
					{
						OFFSET 0.000000 0.000000 0.000000
						CHANNELS 3 Zrotation Yrotation Xrotation
						JOINT LeftShoulder
						{
							OFFSET 5.616900 6.732201 -0.345700
							CHANNELS 3 Zrotation Yrotation Xrotation
							JOINT LeftArm
							{
								OFFSET 10.664888 -0.183372 -2.440700
								CHANNELS 3 Zrotation Yrotation Xrotation
								JOINT LeftForeArm
								{
									OFFSET 27.459126 0.000000 0.000000
									CHANNELS 3 Zrotation Yrotation Xrotation
									End Site #name: LeftHand
									{
										OFFSET 21.306858 0.000000 0.000000
									}
								}
							}
						}
					}
					JOINT Spine2_RightShoulder
					{
						OFFSET 0.000000 0.000000 0.000000
						CHANNELS 3 Zrotation Yrotation Xrotation
						JOINT RightShoulder
						{
							OFFSET -5.580300 6.737503 -0.344400
							CHANNELS 3 Zrotation Yrotation Xrotation
							JOINT RightArm
							{
								OFFSET -10.679335 -0.188484 -2.383900
								CHANNELS 3 Zrotation Yrotation Xrotation
								JOINT RightForeArm
								{
									OFFSET -27.503529 0.000000 0.000000
									CHANNELS 3 Zrotation Yrotation Xrotation
									End Site #name: RightHand
									{
										OFFSET -21.306808 0.000000 0.000000
									}
								}
							}
						}
					}
				}
			}
		}
	}
	JOINT Hips_LeftUpLeg
	{
		OFFSET 0.000000 0.000000 0.000000
		CHANNELS 3 Zrotation Yrotation Xrotation
		JOINT LeftUpLeg
		{
			OFFSET 6.857700 -6.739601 0.312100
			CHANNELS 3 Zrotation Yrotation Xrotation
			JOINT LeftLeg
			{
				OFFSET -0.367590 -34.731552 -4.572400
				CHANNELS 3 Zrotation Yrotation Xrotation
				End Site #name: LeftFoot
				{
					OFFSET 0.367590 -34.656704 -6.067400
				}
			}
		}
	}
	JOINT Hips_RightUpLeg
	{
		OFFSET 0.000000 0.000000 0.000000
		CHANNELS 3 Zrotation Yrotation Xrotation
		JOINT RightUpLeg
		{
			OFFSET -6.876100 -6.733299 0.301000
			CHANNELS 3 Zrotation Yrotation Xrotation
			JOINT RightLeg
			{
				OFFSET 0.347353 -34.795158 -4.515900
				CHANNELS 3 Zrotation Yrotation Xrotation
				End Site #name: RightFoot
				{
					OFFSET -0.347353 -34.589367 -6.070300
				}
			}
		}
	}
}
MOTION
Frames: 12
Frame Time: 0.041667
0.254121 -1.102398 -2.325666 -10.969920 38.899255 -4.674626 0.000000 -0.000000 0.000000 3.844940 -7.870295 0.640864 1.814897 -1.241169 4.379225 0.000000 0.000000 0.000000 2.618498 -1.424508 4.591134 -3.412412 -13.803854 -2.506724 1.340196 -1.304511 2.554963 -6.493635 5.758379 -3.318295 -86.497013 -11.152317 -11.531874 -1.592253 5.242464 0.667814 1.957792 -2.324964 3.993077 18.046746 16.968162 4.812723 53.184944 19.219305 -13.651257 178.936888 42.830540 -176.201522 0.000000 0.000000 -0.000000 3.741530 20.043814 -17.255089 -2.851092 -21.090443 6.440897 0.000000 0.000000 -0.000000 5.358788 -29.916242 -9.445554 -5.065273 1.037479 14.473048 
0.254530 -1.114832 -2.393631 -10.916541 38.920793 -4.682116 0.000000 -0.000000 0.000000 3.838170 -7.872121 0.646182 1.770968 -1.231417 4.328440 0.000000 0.000000 0.000000 2.591127 -1.415824 4.536729 -3.361463 -13.812143 -2.473014 1.319383 -1.296694 2.510130 -6.448158 5.666786 -3.273449 -86.454341 -11.291027 -11.377135 -1.599182 5.067991 0.657171 1.926711 -2.310065 3.949736 18.030931 17.064732 4.864393 53.323546 18.934029 -13.083447 178.968656 43.251485 -176.182174 0.000000 0.000000 -0.000000 3.752483 20.005931 -17.270107 -2.846040 -20.999695 6.486433 0.000000 0.000000 -0.000000 5.410375 -29.884933 -9.447226 -5.050874 1.067647 14.510691 
0.257259 -1.126153 -2.461124 -10.866727 38.946100 -4.689195 0.000000 -0.000000 0.000000 3.814557 -7.894316 0.645783 1.716561 -1.221391 4.267829 0.000000 0.000000 0.000000 2.554848 -1.405140 4.474411 -3.330311 -13.776446 -2.451812 1.292373 -1.285840 2.459590 -6.392824 5.549309 -3.220579 -86.418101 -11.404270 -11.262803 -1.605428 4.925528 0.648550 1.884346 -2.292986 3.901706 18.023152 17.177522 4.929782 53.469982 18.644176 -12.429088 179.002691 43.617796 -176.161077 0.000000 0.000000 -0.000000 3.760289 19.975761 -17.287657 -2.844388 -20.914846 6.535240 0.000000 0.000000 -0.000000 5.459624 -29.872413 -9.457026 -5.045697 1.094628 14.558717 
0.262326 -1.136619 -2.528569 -10.825757 38.986133 -4.704754 0.000000 -0.000000 0.000000 3.776855 -7.928648 0.654596 1.652688 -1.209845 4.208042 0.000000 0.000000 0.000000 2.510629 -1.392043 4.408851 -3.318169 -13.690373 -2.445836 1.258176 -1.271560 2.412203 -6.326444 5.405971 -3.161079 -86.381143 -11.514463 -11.193564 -1.611819 4.802878 0.640450 1.833685 -2.275821 3.853052 18.007924 17.312072 4.984922 53.601135 18.382542 -11.758295 179.036726 43.925888 -176.139380 0.000000 0.000000 -0.000000 3.768737 19.951217 -17.296666 -2.842974 -20.843398 6.570253 0.000000 0.000000 -0.000000 5.504538 -29.890173 -9.464891 -5.066980 1.106131 14.605002 
0.269765 -1.146152 -2.596275 -10.792660 39.029823 -4.722909 0.000000 -0.000000 0.000000 3.722996 -7.978891 0.697212 1.585235 -1.197251 4.152893 0.000000 0.000000 0.000000 2.461305 -1.375936 4.360639 -3.326158 -13.553785 -2.459931 1.221649 -1.253492 2.370341 -6.256166 5.249577 -3.100728 -86.365042 -11.603004 -11.177681 -1.619629 4.713401 0.632225 1.779273 -2.256407 3.810359 17.992711 17.465611 5.035299 53.720900 18.156124 -11.073442 179.070574 44.141438 -176.114841 0.000000 0.000000 -0.000000 3.778236 19.932192 -17.297574 -2.844617 -20.777516 6.595429 0.000000 0.000000 -0.000000 5.545240 -29.915738 -9.478273 -5.090660 1.112363 14.651137 
0.279666 -1.154910 -2.664496 -10.759861 39.065958 -4.734370 0.000000 -0.000000 0.000000 3.657414 -8.040735 0.746198 1.515150 -1.185743 4.104119 0.000000 0.000000 0.000000 2.410997 -1.359574 4.323366 -3.356535 -13.362471 -2.488746 1.182404 -1.232986 2.340177 -6.181498 5.063860 -3.033439 -86.360164 -11.679447 -11.204490 -1.629715 4.658040 0.622836 1.722261 -2.239184 3.772095 17.980984 17.630893 5.060144 53.816971 17.993704 -10.452921 179.099189 44.231970 -176.092187 0.000000 -0.000000 -0.000000 3.784098 19.915082 -17.302512 -2.848977 -20.712743 6.620299 0.000000 0.000000 -0.000000 5.580649 -29.971195 -9.494392 -5.130310 1.114727 14.697946 
0.292079 -1.163201 -2.733551 -10.724815 39.102857 -4.738495 0.000000 -0.000000 0.000000 3.578533 -8.117801 0.806656 1.447474 -1.178278 4.061330 0.000000 0.000000 0.000000 2.363782 -1.345220 4.296802 -3.407279 -13.104978 -2.543015 1.143829 -1.213812 2.310828 -6.106512 4.878370 -2.975178 -86.364225 -11.739532 -11.286740 -1.638336 4.668766 0.616374 1.665594 -2.224916 3.737066 17.969909 17.783663 5.058491 53.890568 17.896188 -9.899799 179.121417 44.187975 -176.072574 0.000000 -0.000000 -0.000000 3.788451 19.900860 -17.304585 -2.851498 -20.642767 6.633210 0.000000 0.000000 -0.000000 5.617636 -30.033854 -9.521803 -5.185856 1.110584 14.748190 
0.307192 -1.170970 -2.803517 -10.688267 39.128425 -4.732516 0.000000 -0.000000 0.000000 3.478480 -8.209732 0.888730 1.385048 -1.167711 4.040015 0.000000 0.000000 0.000000 2.319120 -1.332607 4.280405 -3.467825 -12.656086 -2.714843 1.106169 -1.195285 2.289913 -6.033884 4.673394 -2.912899 -86.376708 -11.784027 -11.405019 -1.649932 4.741675 0.606988 1.610703 -2.214521 3.707584 17.969648 17.929504 5.036401 53.934880 17.880935 -9.430974 179.139662 44.000750 -176.050819 0.000000 -0.000000 -0.000000 3.785811 19.884308 -17.313375 -2.853030 -20.568477 6.636356 0.000000 0.000000 -0.000000 5.648305 -30.111469 -9.547371 -5.270459 1.097082 14.791166 
0.325318 -1.178131 -2.874663 -10.647100 39.145766 -4.716294 0.000000 -0.000000 0.000000 3.368615 -8.301416 0.978882 1.326702 -1.157281 4.024130 0.000000 0.000000 0.000000 2.278879 -1.321323 4.275490 -3.555614 -12.119560 -2.930622 1.069737 -1.178656 2.274886 -5.957682 4.461618 -2.858835 -86.395556 -11.798602 -11.567811 -1.661997 4.856963 0.598192 1.558049 -2.207260 3.684999 17.975067 18.049773 4.982701 53.943533 17.967985 -9.075028 179.149192 43.664749 -176.033216 0.000000 -0.000000 -0.000000 3.778425 19.865854 -17.334819 -2.858067 -20.489533 6.645765 0.000000 0.000000 -0.000000 5.673705 -30.198707 -9.579255 -5.371486 1.071684 14.838745 
0.346476 -1.184841 -2.946814 -10.600979 39.156709 -4.693110 0.000000 -0.000000 0.000000 3.253699 -8.386593 1.074801 1.276532 -1.150500 4.013647 0.000000 0.000000 0.000000 2.232508 -1.310758 4.282638 -3.665080 -11.512367 -3.185193 1.036752 -1.164964 2.265656 -5.877580 4.236937 -2.812209 -86.430650 -11.782909 -11.776942 -1.673393 5.026818 0.589932 1.509685 -2.203732 3.669570 17.986630 18.119484 4.890176 53.926584 18.116189 -8.908925 179.154504 43.186211 -176.010861 0.000000 -0.000000 -0.000000 3.766544 19.846394 -17.360290 -2.860101 -20.401405 6.651164 0.000000 0.000000 -0.000000 5.694933 -30.284271 -9.615215 -5.493610 1.032517 14.887069 
0.370998 -1.191229 -3.019384 -10.550835 39.167480 -4.662031 0.000000 -0.000000 0.000000 3.143639 -8.456009 1.173937 1.232702 -1.148183 4.009010 0.000000 0.000000 0.000000 2.189762 -1.302287 4.299884 -3.779881 -10.872902 -3.441811 1.007646 -1.154529 2.264773 -5.801202 3.994843 -2.763325 -86.473157 -11.746973 -12.040347 -1.684948 5.254071 0.582542 1.466952 -2.205046 3.662062 17.994140 18.200614 4.758516 53.879309 18.342746 -9.029560 179.150828 42.627877 -175.992402 0.000000 -0.000000 -0.000000 3.745605 19.827967 -17.387124 -2.861453 -20.315250 6.645182 0.000000 0.000000 -0.000000 5.711559 -30.358015 -9.652280 -5.639493 0.975042 14.929605 
0.399781 -1.197457 -3.091823 -10.491322 39.146146 -4.621467 0.000000 -0.000000 0.000000 3.032388 -8.512704 1.289845 1.201577 -1.150018 4.011730 0.000000 0.000000 0.000000 2.155942 -1.296103 4.328017 -3.793106 -10.192769 -3.716467 0.983643 -1.147975 2.271748 -5.722407 3.743256 -2.722197 -86.524306 -11.681252 -12.336906 -1.698354 5.552680 0.573256 1.426794 -2.210554 3.662504 17.995261 18.258003 4.568436 53.793469 18.643804 -9.283559 179.145995 41.969052 -175.969810 0.000000 -0.000000 -0.000000 3.716153 19.803082 -17.421575 -2.866716 -20.240413 6.626456 0.000000 0.000000 -0.000000 5.728540 -30.390653 -9.692612 -5.808187 0.892323 14.969111 
